<?xml version="1.0" encoding="UTF-8"?><svg xmlns="http://www.w3.org/2000/svg" xmlns:xlink="http://www.w3.org/1999/xlink" version="1.2" width="100%" viewBox="0 0 1563 1563" xml:space="preserve" baseProfile="tiny-ps"><title>tiny</title><path fill="#FEFFFF" stroke="none" d=" M1035.000000,1564.000000   C690.000122,1564.000000 345.500214,1564.000000 1.000231,1564.000000   C1.000154,1043.000244 1.000154,522.000488 1.000077,1.000581   C521.999573,1.000387 1042.999146,1.000387 1563.999023,1.000193   C1563.999390,521.999451 1563.999390,1042.998901 1563.999756,1563.999146   C1387.833374,1564.000000 1211.666626,1564.000000 1035.000000,1564.000000  M1098.755371,475.744873   C1098.541748,475.674255 1098.328247,475.603638 1098.114624,475.533020   C1098.424316,475.679504 1098.734131,475.825989 1099.515991,476.435272   C1106.314453,480.327728 1113.112793,484.220184 1120.417725,488.551605   C1130.149658,495.265900 1140.161987,501.611328 1149.564453,508.759155   C1187.585693,537.663330 1219.842529,571.608154 1239.939453,615.621094   C1254.392944,647.274963 1261.057251,680.469299 1256.722778,715.316345   C1250.574829,764.743225 1229.357178,807.142029 1195.843018,843.604187   C1161.986084,880.439209 1121.090332,907.658936 1076.569580,929.660950   C1026.080933,954.612427 972.694092,970.613098 917.293274,980.364502   C879.655640,986.989441 841.756592,990.771545 803.608826,992.056396   C763.405151,993.410400 723.353210,990.943726 683.481873,985.787048   C621.578186,977.780945 561.519104,962.879761 504.482605,936.994263   C459.578033,916.614868 418.038361,891.048401 382.346802,856.684143   C353.348541,828.764282 330.998047,796.461060 318.293640,757.925659   C306.049286,720.785889 303.790070,683.403809 314.498535,645.417236   C325.692078,605.709656 347.914185,572.818115 376.131073,543.491516   C397.592896,521.185669 422.453827,503.134613 448.904755,486.148621   C452.601074,484.203491 456.297424,482.258331 459.993744,480.313202   C459.682159,479.671448 459.370605,479.029724 459.059021,478.387970   C454.666107,480.547424 450.273193,482.706848 445.217865,485.091095   C431.730469,492.330383 417.991364,499.140961 404.800812,506.885773   C356.919647,534.999268 314.480682,569.450500 281.779968,614.863159   C255.344727,651.574707 239.932129,692.414124 238.112091,737.787170   C236.570984,776.206604 245.687164,812.448730 263.261841,846.539307   C284.998505,888.703003 317.005341,922.023682 354.111816,950.799622   C400.777222,986.988586 453.006500,1012.861694 508.319916,1032.735107   C557.500671,1050.405273 608.040527,1062.968750 659.969421,1068.939209   C693.845337,1072.833984 727.888306,1075.956055 761.943176,1077.452515   C811.637573,1079.636108 861.164490,1075.647583 910.384949,1068.669678   C955.952148,1062.209717 1000.696350,1052.018311 1044.317627,1037.162598   C1112.534302,1013.930298 1176.161255,982.341431 1230.905273,934.611938   C1262.636475,906.946655 1289.412964,875.343567 1306.925537,836.698853   C1326.372559,793.785583 1332.743164,749.176941 1322.939331,702.703613   C1313.683228,658.826294 1292.131958,621.442078 1262.443970,588.387268   C1232.214478,554.729431 1196.823853,527.491455 1157.645630,505.140961   C1145.423218,498.168304 1132.567017,492.306793 1119.592651,485.399780   C1112.728027,482.273254 1105.863281,479.146729 1098.755371,475.744873  M618.928650,579.685913   C599.816895,586.766907 581.532227,595.588196 564.298767,606.450256   C539.560486,622.042419 517.153381,640.326843 501.226624,665.291504   C475.843842,705.078247 474.487579,745.867615 497.196106,787.338196   C512.270630,814.867371 534.978821,834.959778 560.926941,851.597107   C610.337097,883.277649 665.318115,898.670532 723.001221,905.563477   C761.351013,910.146240 799.756226,910.265442 838.189087,905.989746   C883.164062,900.986206 926.783508,890.882996 967.933838,871.671997   C1000.841675,856.308838 1031.014038,836.980835 1054.159546,808.298767   C1073.755005,784.015747 1084.970093,756.430298 1083.808228,724.938477   C1082.650024,693.544067 1068.997314,667.209412 1047.817993,644.621155   C1018.198181,613.030701 981.470154,592.607178 941.291748,577.789551   C936.895813,576.168335 932.286682,575.125305 927.776428,573.814148   C927.644409,574.205017 927.512390,574.595825 927.380371,574.986633   C929.070862,575.928284 930.745972,576.898682 932.454102,577.807129   C956.948730,590.835449 978.097839,607.719849 993.407532,631.192688   C1004.953613,648.895142 1011.894104,668.473511 1011.607422,689.523865   C1011.227539,717.409424 1000.150696,741.622986 981.437561,762.199280   C959.803833,785.986877 933.026489,802.317017 903.406799,813.966309   C854.787292,833.088379 804.254150,838.846985 752.343384,834.480835   C716.709839,831.483826 682.239563,823.955444 649.727844,808.805420   C621.330505,795.572571 595.618103,778.585510 576.477661,753.127808   C561.498291,733.204529 553.001038,710.796631 553.966980,685.759460   C554.835632,663.244812 562.994446,642.928833 576.370300,624.759644   C590.980591,604.913696 610.156311,590.465149 631.699890,578.224915   C632.000977,578.123047 632.231812,577.934937 632.790588,577.474976   C632.790588,577.474976 633.136292,577.203735 633.872498,577.155945   C637.171997,575.521973 640.471497,573.888062 643.770996,572.254089   C643.542297,571.709290 643.313599,571.164551 643.084900,570.619751   C639.627014,571.971436 636.169128,573.323181 632.092224,574.881714   C631.063354,575.230469 630.034424,575.579163 628.650757,575.597351   C628.037231,576.002258 627.423706,576.407227 626.129272,576.950195   C624.403015,577.606201 622.676758,578.262146 620.448975,578.879700   C620.177490,579.061218 619.905945,579.242737 618.928650,579.685913  M1052.981934,882.099426   C1063.602173,876.621521 1074.450806,871.541321 1084.802002,865.594971   C1123.199219,843.537292 1157.480103,816.551636 1182.826782,779.702148   C1214.179199,734.121277 1221.997437,685.035278 1202.716797,632.508179   C1188.114990,592.727844 1161.474365,562.109131 1128.505005,536.562683   C1091.289917,507.726562 1049.770874,486.801849 1005.516296,471.181519   C939.422668,447.852753 870.910522,437.725433 801.187622,435.697266   C774.943115,434.933838 748.554260,436.400513 722.330811,438.256744   C677.728027,441.413879 633.798157,448.996429 590.766846,461.429993   C537.698303,476.763672 487.936584,499.022095 443.236938,531.839111   C416.524139,551.450806 393.136475,574.332642 376.560791,603.320557   C354.950104,641.113831 345.916168,681.135437 357.068115,724.296326   C365.994629,758.844421 385.024048,787.320312 409.894958,812.329163   C441.106812,843.714233 478.324158,866.129211 517.949341,884.972229   C519.331238,885.629272 520.938904,885.811462 522.441345,886.214966   C516.714294,881.205322 510.591949,877.097839 504.535767,872.895081   C475.272217,852.586792 450.139893,828.429688 433.589539,796.346924   C422.731293,775.298157 416.087311,752.859802 416.375854,729.239380   C416.709473,701.927124 425.153625,676.533264 439.478882,653.178467   C457.745453,623.397888 483.263885,601.009766 512.192444,582.224731   C552.700439,555.920410 596.976562,538.481384 643.794922,527.203308   C672.662720,520.249268 701.988953,516.185059 731.490051,513.139893   C733.500977,512.932373 735.968811,511.192749 737.112000,509.440186   C751.578308,487.262726 765.835205,464.948669 780.170837,442.685852   C780.854431,441.624359 781.774780,440.715424 782.835754,439.431976   C784.062317,441.028534 785.149719,442.252289 786.025452,443.612335   C799.911072,465.177368 813.878967,486.691071 827.523682,508.407776   C829.726501,511.913818 832.102661,513.339905 836.083435,513.841858   C856.060669,516.360840 876.127319,518.476624 895.926208,522.045532   C951.849854,532.126282 1004.597839,550.916138 1052.601562,581.834106   C1084.092407,602.116455 1111.437866,626.629883 1129.792236,659.927063   C1142.320068,682.654053 1149.841187,707.009827 1148.921875,732.993591   C1147.816772,764.228271 1136.857666,792.443909 1118.746094,817.921265   C1100.296143,843.874329 1075.949341,863.299561 1049.069946,880.891235   C1042.927246,884.379822 1036.784546,887.868347 1030.641846,891.356873   C1030.877563,891.783447 1031.113159,892.210022 1031.348755,892.636658   C1038.320923,889.160217 1045.293091,885.683838 1052.981934,882.099426  M590.246216,1326.473511   C590.190491,1322.641479 590.259521,1318.802734 590.058350,1314.978394   C588.919617,1293.324829 580.893127,1274.927002 564.134155,1260.739502   C561.494263,1258.504761 558.680603,1256.475342 555.643250,1254.114624   C567.691162,1237.142090 571.211304,1218.174805 571.419617,1197.822388   C571.730530,1167.454956 548.439270,1146.045288 519.695312,1145.900879   C472.366821,1145.662964 425.036224,1145.776733 377.706665,1145.845947   C364.647125,1145.865112 355.850464,1154.414673 355.829193,1167.368164   C355.724426,1231.196289 355.715820,1295.025024 355.821289,1358.853149   C355.842834,1371.911011 364.566345,1380.229736 377.732819,1380.239746   C431.895294,1380.280518 486.058441,1380.374756 540.219543,1380.094238   C546.736572,1380.060547 553.764160,1379.047241 559.659607,1376.453003   C580.705750,1367.191650 589.815491,1349.895264 590.246216,1326.473511  M662.363586,754.124146   C670.528625,758.604309 678.443237,763.639587 686.906860,767.458008   C710.037476,777.893616 734.462891,783.334351 759.743347,785.334045   C797.942261,788.355591 835.268860,784.747375 871.126282,770.638977   C893.859314,761.694519 914.633911,749.460999 930.187378,730.093079   C952.721069,702.032898 954.689270,670.029724 934.431763,640.504578   C919.278381,618.418579 897.334412,605.089783 873.086914,595.080811   C872.745789,594.940002 872.222778,595.239990 871.707275,595.350891   C885.736389,639.338196 874.874878,676.342651 838.075623,703.383240   C807.010925,726.210022 771.640381,728.515808 738.098145,709.789429   C692.741516,684.466919 679.207153,644.654175 693.907776,594.836365   C692.932556,595.021179 692.266724,595.032471 691.696838,595.272034   C670.575928,604.153809 651.027893,615.537842 636.319885,633.485168   C616.804565,657.298462 610.872925,683.585083 624.185730,712.594116   C632.311523,730.300476 645.918884,743.050781 662.363586,754.124146  M1107.056641,1170.442993   C1090.209595,1153.896240 1069.901001,1144.158691 1046.458008,1143.162964   C1021.020569,1142.082642 995.391296,1141.360229 970.043701,1143.204346   C920.079895,1146.839233 884.998535,1182.616333 881.566650,1232.507202   C880.175171,1252.734985 880.148926,1273.220093 881.556213,1293.445068   C885.108521,1344.496704 921.515747,1380.282227 972.220764,1383.364136   C986.998840,1384.262207 1001.872742,1383.505371 1016.696594,1383.806274   C1019.277466,1383.858521 1022.296875,1384.798218 1024.315308,1386.359863   C1035.906738,1395.327881 1047.192139,1404.691284 1058.754395,1413.698120   C1060.685669,1415.202881 1063.456055,1416.384521 1065.855225,1416.414551   C1083.681641,1416.638062 1101.512207,1416.540161 1119.341553,1416.512817   C1120.372559,1416.511230 1121.402954,1416.244507 1123.230347,1415.990356   C1106.642578,1402.836060 1090.718140,1390.207886 1074.301880,1377.189697   C1075.911743,1376.431396 1076.633057,1376.075195 1077.367310,1375.748047   C1111.687500,1360.463257 1130.534912,1333.639404 1133.840210,1296.689331   C1135.615356,1276.843994 1135.112305,1256.733398 1134.652100,1236.765137   C1134.070435,1211.533936 1125.343506,1189.281494 1107.056641,1170.442993  M626.638550,1250.841309   C630.157593,1255.468628 633.193848,1260.583252 637.283142,1264.635132   C651.538147,1278.759766 669.235352,1284.555786 689.007141,1284.589722   C719.837830,1284.642578 750.668701,1284.575317 781.499329,1284.643921   C784.971985,1284.651611 788.573914,1284.714233 791.893127,1285.592773   C806.667236,1289.503540 814.070740,1306.033936 808.409790,1321.944946   C804.643188,1332.531738 796.486389,1337.762695 783.324646,1337.771606   C730.995728,1337.807373 678.666748,1337.788696 626.337830,1337.790161   C624.413208,1337.790283 622.488586,1337.790161 620.369873,1337.790161   C620.369873,1352.281616 620.369873,1366.017578 620.369873,1379.939453   C621.613098,1380.066895 622.577759,1380.252197 623.542419,1380.252197   C677.871155,1380.257202 732.200623,1380.399658 786.528137,1380.139893   C801.759705,1380.067139 815.477905,1374.630859 827.787781,1365.607788   C853.727478,1346.593628 858.704834,1307.667236 846.850098,1281.746216   C834.270386,1254.239990 811.142944,1242.239624 781.828430,1241.750366   C751.672729,1241.246948 721.502014,1241.651978 691.337891,1241.617554   C688.010864,1241.613770 684.660034,1241.537354 681.361755,1241.145264   C671.618347,1239.987305 664.613953,1234.721802 662.364746,1225.259399   C660.949158,1219.303589 660.824951,1212.606934 661.939209,1206.578613   C663.924500,1195.838257 672.152588,1189.443115 683.090149,1188.541870   C686.072632,1188.296143 689.084961,1188.371460 692.083618,1188.370850   C736.413208,1188.361572 780.742859,1188.364014 825.072449,1188.363892   C827.000732,1188.363770 828.929016,1188.364014 830.831299,1188.364014   C830.831299,1173.797607 830.831299,1159.900879 830.831299,1145.808838   C826.636230,1145.808838 822.815857,1145.808838 818.995422,1145.808960   C775.332397,1145.810425 731.668945,1145.693237 688.006592,1145.865845   C667.679749,1145.946167 649.588928,1152.307861 635.557556,1167.545776   C615.903381,1188.890137 612.230774,1223.168457 626.638550,1250.841309  M791.635864,297.860107   C787.188171,297.622681 782.673828,296.775940 778.304504,297.254242   C760.237549,299.231842 747.552490,311.411133 743.838379,329.786682   C740.558105,346.015778 748.353699,363.768036 762.654968,371.619385   C779.246887,380.728302 796.746033,378.937653 810.053040,367.042542   C821.333252,356.959198 825.910217,343.803497 822.460754,328.618713   C818.760376,312.329315 808.880676,301.920471 791.635864,297.860107  M758.143494,230.746429   C758.288696,248.286514 772.082092,260.085419 788.361755,256.595337   C802.526672,253.558624 810.727905,240.448105 807.239929,226.416428   C803.631775,211.901337 790.451477,204.160522 776.274963,208.244629   C765.373169,211.385269 759.960449,219.099762 758.143494,230.746429  M1199.816895,1171.374146   C1198.900024,1170.589355 1197.545776,1169.984253 1197.137207,1168.990479   C1194.483887,1162.536987 1192.130249,1155.959717 1189.440552,1149.522339   C1188.914551,1148.263428 1187.467285,1146.777466 1186.234497,1146.553467   C1183.699829,1146.093018 1181.023071,1146.415161 1178.176758,1146.415161   C1178.176758,1159.212524 1178.176758,1171.441162 1178.176758,1183.902588   C1180.316040,1183.902588 1182.229004,1183.902588 1184.783203,1183.902588   C1184.783203,1175.213745 1184.783203,1166.718872 1184.783203,1158.224121   C1186.514526,1159.433105 1187.250610,1160.813843 1187.812256,1162.262207   C1190.275269,1168.613770 1192.552612,1175.042847 1195.232056,1181.300415   C1195.772217,1182.561646 1197.714722,1183.801392 1199.109009,1183.922607   C1200.106323,1184.009399 1201.772827,1182.421631 1202.271606,1181.220093   C1205.011230,1174.620361 1207.476318,1167.906860 1210.050903,1161.238281   C1210.702637,1159.550049 1211.408936,1157.882935 1212.090088,1156.206055   C1212.458740,1156.327393 1212.827271,1156.448730 1213.195923,1156.570068   C1213.195923,1165.671753 1213.195923,1174.773438 1213.195923,1183.839600   C1215.455322,1183.839600 1217.369019,1183.839600 1219.397461,1183.839600   C1219.397461,1171.325073 1219.397461,1159.112427 1219.397461,1146.956421   C1209.638306,1145.331909 1209.561401,1145.377808 1206.391357,1153.814941   C1204.287598,1159.414307 1202.169434,1165.008301 1199.816895,1171.374146  M795.907593,147.805466   C789.296875,138.208069 776.734741,137.733337 770.933838,146.861664   C767.186157,152.758987 767.993774,160.895630 772.807739,165.741791   C777.242676,170.206421 785.658569,170.996475 791.281128,167.475967   C797.176208,163.784821 799.156494,156.177429 795.907593,147.805466  M1152.696411,1172.468506   C1152.696411,1176.236206 1152.696411,1180.003906 1152.696411,1183.905273   C1155.154785,1183.905273 1157.095337,1183.905273 1159.414307,1183.905273   C1159.414307,1175.572632 1159.396729,1167.455200 1159.419067,1159.337769   C1159.441895,1151.077881 1158.723877,1151.867798 1166.452881,1152.048096   C1170.520386,1152.143066 1171.993408,1150.875610 1170.434326,1146.702637   C1160.830078,1146.702637 1151.273804,1146.702637 1141.166504,1146.702637   C1141.307007,1156.146973 1149.387329,1149.502686 1152.696655,1153.414185   C1152.696655,1158.919189 1152.696655,1165.199341 1152.696411,1172.468506  z"></path><path fill="#02BAE3" stroke="none" d=" M1120.000854,485.936646   C1132.567017,492.306793 1145.423218,498.168304 1157.645630,505.140961   C1196.823853,527.491455 1232.214478,554.729431 1262.443970,588.387268   C1292.131958,621.442078 1313.683228,658.826294 1322.939331,702.703613   C1332.743164,749.176941 1326.372559,793.785583 1306.925537,836.698853   C1289.412964,875.343567 1262.636475,906.946655 1230.905273,934.611938   C1176.161255,982.341431 1112.534302,1013.930298 1044.317627,1037.162598   C1000.696350,1052.018311 955.952148,1062.209717 910.384949,1068.669678   C861.164490,1075.647583 811.637573,1079.636108 761.943176,1077.452515   C727.888306,1075.956055 693.845337,1072.833984 659.969421,1068.939209   C608.040527,1062.968750 557.500671,1050.405273 508.319916,1032.735107   C453.006500,1012.861694 400.777222,986.988586 354.111816,950.799622   C317.005341,922.023682 284.998505,888.703003 263.261841,846.539307   C245.687164,812.448730 236.570984,776.206604 238.112091,737.787170   C239.932129,692.414124 255.344727,651.574707 281.779968,614.863159   C314.480682,569.450500 356.919647,534.999268 404.800812,506.885773   C417.991364,499.140961 431.730469,492.330383 445.882385,485.082458   C447.087067,485.436798 447.627197,485.799744 448.167328,486.162659   C422.453827,503.134613 397.592896,521.185669 376.131073,543.491516   C347.914185,572.818115 325.692078,605.709656 314.498535,645.417236   C303.790070,683.403809 306.049286,720.785889 318.293640,757.925659   C330.998047,796.461060 353.348541,828.764282 382.346802,856.684143   C418.038361,891.048401 459.578033,916.614868 504.482605,936.994263   C561.519104,962.879761 621.578186,977.780945 683.481873,985.787048   C723.353210,990.943726 763.405151,993.410400 803.608826,992.056396   C841.756592,990.771545 879.655640,986.989441 917.293274,980.364502   C972.694092,970.613098 1026.080933,954.612427 1076.569580,929.660950   C1121.090332,907.658936 1161.986084,880.439209 1195.843018,843.604187   C1229.357178,807.142029 1250.574829,764.743225 1256.722778,715.316345   C1261.057251,680.469299 1254.392944,647.274963 1239.939453,615.621094   C1219.842529,571.608154 1187.585693,537.663330 1149.564453,508.759155   C1140.161987,501.611328 1130.149658,495.265900 1120.150635,487.967712   C1119.922729,486.901428 1119.961792,486.419006 1120.000854,485.936646  z"></path><path fill="#02BAE3" stroke="none" d=" M1049.789673,880.763062   C1075.949341,863.299561 1100.296143,843.874329 1118.746094,817.921265   C1136.857666,792.443909 1147.816772,764.228271 1148.921875,732.993591   C1149.841187,707.009827 1142.320068,682.654053 1129.792236,659.927063   C1111.437866,626.629883 1084.092407,602.116455 1052.601562,581.834106   C1004.597839,550.916138 951.849854,532.126282 895.926208,522.045532   C876.127319,518.476624 856.060669,516.360840 836.083435,513.841858   C832.102661,513.339905 829.726501,511.913818 827.523682,508.407776   C813.878967,486.691071 799.911072,465.177368 786.025452,443.612335   C785.149719,442.252289 784.062317,441.028534 782.835754,439.431976   C781.774780,440.715424 780.854431,441.624359 780.170837,442.685852   C765.835205,464.948669 751.578308,487.262726 737.112000,509.440186   C735.968811,511.192749 733.500977,512.932373 731.490051,513.139893   C701.988953,516.185059 672.662720,520.249268 643.794922,527.203308   C596.976562,538.481384 552.700439,555.920410 512.192444,582.224731   C483.263885,601.009766 457.745453,623.397888 439.478882,653.178467   C425.153625,676.533264 416.709473,701.927124 416.375854,729.239380   C416.087311,752.859802 422.731293,775.298157 433.589539,796.346924   C450.139893,828.429688 475.272217,852.586792 504.535767,872.895081   C510.591949,877.097839 516.714294,881.205322 522.441345,886.214966   C520.938904,885.811462 519.331238,885.629272 517.949341,884.972229   C478.324158,866.129211 441.106812,843.714233 409.894958,812.329163   C385.024048,787.320312 365.994629,758.844421 357.068115,724.296326   C345.916168,681.135437 354.950104,641.113831 376.560791,603.320557   C393.136475,574.332642 416.524139,551.450806 443.236938,531.839111   C487.936584,499.022095 537.698303,476.763672 590.766846,461.429993   C633.798157,448.996429 677.728027,441.413879 722.330811,438.256744   C748.554260,436.400513 774.943115,434.933838 801.187622,435.697266   C870.910522,437.725433 939.422668,447.852753 1005.516296,471.181519   C1049.770874,486.801849 1091.289917,507.726562 1128.505005,536.562683   C1161.474365,562.109131 1188.114990,592.727844 1202.716797,632.508179   C1221.997437,685.035278 1214.179199,734.121277 1182.826782,779.702148   C1157.480103,816.551636 1123.199219,843.537292 1084.802002,865.594971   C1074.450806,871.541321 1063.602173,876.621521 1052.245972,882.097412   C1050.936523,881.651245 1050.363159,881.207153 1049.789673,880.763062  z"></path><path fill="#02BAE3" stroke="none" d=" M633.136292,577.203735   C633.136292,577.203735 632.790588,577.474976 632.330872,577.475708   C631.663330,577.742432 631.455444,578.008301 631.247620,578.274231   C610.156311,590.465149 590.980591,604.913696 576.370300,624.759644   C562.994446,642.928833 554.835632,663.244812 553.966980,685.759460   C553.001038,710.796631 561.498291,733.204529 576.477661,753.127808   C595.618103,778.585510 621.330505,795.572571 649.727844,808.805420   C682.239563,823.955444 716.709839,831.483826 752.343384,834.480835   C804.254150,838.846985 854.787292,833.088379 903.406799,813.966309   C933.026489,802.317017 959.803833,785.986877 981.437561,762.199280   C1000.150696,741.622986 1011.227539,717.409424 1011.607422,689.523865   C1011.894104,668.473511 1004.953613,648.895142 993.407532,631.192688   C978.097839,607.719849 956.948730,590.835449 932.454102,577.807129   C930.745972,576.898682 929.070862,575.928284 927.380371,574.986633   C927.512390,574.595825 927.644409,574.205017 927.776428,573.814148   C932.286682,575.125305 936.895813,576.168335 941.291748,577.789551   C981.470154,592.607178 1018.198181,613.030701 1047.817993,644.621155   C1068.997314,667.209412 1082.650024,693.544067 1083.808228,724.938477   C1084.970093,756.430298 1073.755005,784.015747 1054.159546,808.298767   C1031.014038,836.980835 1000.841675,856.308838 967.933838,871.671997   C926.783508,890.882996 883.164062,900.986206 838.189087,905.989746   C799.756226,910.265442 761.351013,910.146240 723.001221,905.563477   C665.318115,898.670532 610.337097,883.277649 560.926941,851.597107   C534.978821,834.959778 512.270630,814.867371 497.196106,787.338196   C474.487579,745.867615 475.843842,705.078247 501.226624,665.291504   C517.153381,640.326843 539.560486,622.042419 564.298767,606.450256   C581.532227,595.588196 599.816895,586.766907 619.539795,579.633667   C620.417419,579.360291 620.683960,579.139221 620.950500,578.918152   C622.676758,578.262146 624.403015,577.606201 626.792969,576.950439   C627.973022,576.609741 628.489319,576.268860 629.005554,575.927979   C630.034424,575.579163 631.063354,575.230469 632.671997,574.890686   C633.213257,575.667664 633.174744,576.435730 633.136292,577.203735  z"></path><path fill="#035682" stroke="none" d=" M590.245605,1326.967529   C589.815491,1349.895264 580.705750,1367.191650 559.659607,1376.453003   C553.764160,1379.047241 546.736572,1380.060547 540.219543,1380.094238   C486.058441,1380.374756 431.895294,1380.280518 377.732819,1380.239746   C364.566345,1380.229736 355.842834,1371.911011 355.821289,1358.853149   C355.715820,1295.025024 355.724426,1231.196289 355.829193,1167.368164   C355.850464,1154.414673 364.647125,1145.865112 377.706665,1145.845947   C425.036224,1145.776733 472.366821,1145.662964 519.695312,1145.900879   C548.439270,1146.045288 571.730530,1167.454956 571.419617,1197.822388   C571.211304,1218.174805 567.691162,1237.142090 555.643250,1254.114624   C558.680603,1256.475342 561.494263,1258.504761 564.134155,1260.739502   C580.893127,1274.927002 588.919617,1293.324829 590.058350,1314.978394   C590.259521,1318.802734 590.190491,1322.641479 590.245605,1326.967529  M446.500183,1284.531006   C437.500458,1284.530518 428.498169,1284.407104 419.502319,1284.593628   C416.172852,1284.662720 415.199249,1283.470703 415.239502,1280.256470   C415.385590,1268.591675 415.285797,1256.924072 415.329010,1245.257568   C415.333038,1244.176270 415.693237,1243.096436 415.941223,1241.721069   C427.535706,1241.721069 438.850952,1241.794312 450.164917,1241.703491   C466.323669,1241.573853 482.521820,1241.957397 498.627350,1240.932007   C512.314087,1240.060669 522.044678,1232.309692 526.066528,1219.020996   C527.861084,1213.091553 528.115295,1206.583862 528.328918,1200.313477   C528.664917,1190.453613 526.285217,1188.304810 516.396545,1188.301392   C478.896759,1188.288208 441.396942,1188.290405 403.897156,1188.302368   C402.128021,1188.302979 400.358948,1188.452637 398.542358,1188.535034   C398.542358,1238.478149 398.542358,1287.883789 398.542358,1337.271729   C399.319946,1337.499512 399.784271,1337.754639 400.248627,1337.754761   C446.748077,1337.769409 493.247498,1337.763306 539.746948,1337.763672   C544.643555,1337.763794 547.369202,1335.092896 547.485107,1330.456055   C547.638428,1324.318237 547.897034,1318.028931 546.797363,1312.046143   C544.568115,1299.918335 537.745544,1290.856323 525.650757,1287.104004   C520.191833,1285.410400 514.240906,1284.710083 508.498291,1284.630249   C488.169067,1284.347534 467.833435,1284.526978 446.500183,1284.531006  z"></path><path fill="#02BAE3" stroke="none" d=" M662.059570,753.932922   C645.918884,743.050781 632.311523,730.300476 624.185730,712.594116   C610.872925,683.585083 616.804565,657.298462 636.319885,633.485168   C651.027893,615.537842 670.575928,604.153809 691.696838,595.272034   C692.266724,595.032471 692.932556,595.021179 693.907776,594.836365   C679.207153,644.654175 692.741516,684.466919 738.098145,709.789429   C771.640381,728.515808 807.010925,726.210022 838.075623,703.383240   C874.874878,676.342651 885.736389,639.338196 871.707275,595.350891   C872.222778,595.239990 872.745789,594.940002 873.086914,595.080811   C897.334412,605.089783 919.278381,618.418579 934.431763,640.504578   C954.689270,670.029724 952.721069,702.032898 930.187378,730.093079   C914.633911,749.460999 893.859314,761.694519 871.126282,770.638977   C835.268860,784.747375 797.942261,788.355591 759.743347,785.334045   C734.462891,783.334351 710.037476,777.893616 686.906860,767.458008   C678.443237,763.639587 670.528625,758.604309 662.059570,753.932922  z"></path><path fill="#045782" stroke="none" d=" M1107.304810,1170.696045   C1125.343506,1189.281494 1134.070435,1211.533936 1134.652100,1236.765137   C1135.112305,1256.733398 1135.615356,1276.843994 1133.840210,1296.689331   C1130.534912,1333.639404 1111.687500,1360.463257 1077.367310,1375.748047   C1076.633057,1376.075195 1075.911743,1376.431396 1074.301880,1377.189697   C1090.718140,1390.207886 1106.642578,1402.836060 1123.230347,1415.990356   C1121.402954,1416.244507 1120.372559,1416.511230 1119.341553,1416.512817   C1101.512207,1416.540161 1083.681641,1416.638062 1065.855225,1416.414551   C1063.456055,1416.384521 1060.685669,1415.202881 1058.754395,1413.698120   C1047.192139,1404.691284 1035.906738,1395.327881 1024.315308,1386.359863   C1022.296875,1384.798218 1019.277466,1383.858521 1016.696594,1383.806274   C1001.872742,1383.505371 986.998840,1384.262207 972.220764,1383.364136   C921.515747,1380.282227 885.108521,1344.496704 881.556213,1293.445068   C880.148926,1273.220093 880.175171,1252.734985 881.566650,1232.507202   C884.998535,1182.616333 920.079895,1146.839233 970.043701,1143.204346   C995.391296,1141.360229 1021.020569,1142.082642 1046.458008,1143.162964   C1069.901001,1144.158691 1090.209595,1153.896240 1107.304810,1170.696045  M1037.399170,1341.009521   C1068.035400,1340.096069 1088.376465,1323.348267 1091.275879,1293.631470   C1093.223145,1273.671875 1093.286011,1253.226440 1091.391968,1233.264282   C1088.525391,1203.051636 1067.591309,1185.481934 1037.134033,1185.132202   C1016.976440,1184.900635 996.809998,1184.860962 976.654358,1185.172852   C946.594788,1185.637939 924.676270,1207.181274 923.819275,1237.265015   C923.335571,1254.245117 923.541504,1271.252075 923.762695,1288.242798   C923.908691,1299.458984 926.813904,1310.029541 933.498779,1319.221558   C943.701599,1333.250854 957.860779,1340.345703 974.947205,1340.785156   C995.427979,1341.311768 1015.930786,1340.978882 1037.399170,1341.009521  z"></path><path fill="#035782" stroke="none" d=" M626.444336,1250.527832   C612.230774,1223.168457 615.903381,1188.890137 635.557556,1167.545776   C649.588928,1152.307861 667.679749,1145.946167 688.006592,1145.865845   C731.668945,1145.693237 775.332397,1145.810425 818.995422,1145.808960   C822.815857,1145.808838 826.636230,1145.808838 830.831299,1145.808838   C830.831299,1159.900879 830.831299,1173.797607 830.831299,1188.364014   C828.929016,1188.364014 827.000732,1188.363770 825.072449,1188.363892   C780.742859,1188.364014 736.413208,1188.361572 692.083618,1188.370850   C689.084961,1188.371460 686.072632,1188.296143 683.090149,1188.541870   C672.152588,1189.443115 663.924500,1195.838257 661.939209,1206.578613   C660.824951,1212.606934 660.949158,1219.303589 662.364746,1225.259399   C664.613953,1234.721802 671.618347,1239.987305 681.361755,1241.145264   C684.660034,1241.537354 688.010864,1241.613770 691.337891,1241.617554   C721.502014,1241.651978 751.672729,1241.246948 781.828430,1241.750366   C811.142944,1242.239624 834.270386,1254.239990 846.850098,1281.746216   C858.704834,1307.667236 853.727478,1346.593628 827.787781,1365.607788   C815.477905,1374.630859 801.759705,1380.067139 786.528137,1380.139893   C732.200623,1380.399658 677.871155,1380.257202 623.542419,1380.252197   C622.577759,1380.252197 621.613098,1380.066895 620.369873,1379.939453   C620.369873,1366.017578 620.369873,1352.281616 620.369873,1337.790161   C622.488586,1337.790161 624.413208,1337.790283 626.337830,1337.790161   C678.666748,1337.788696 730.995728,1337.807373 783.324646,1337.771606   C796.486389,1337.762695 804.643188,1332.531738 808.409790,1321.944946   C814.070740,1306.033936 806.667236,1289.503540 791.893127,1285.592773   C788.573914,1284.714233 784.971985,1284.651611 781.499329,1284.643921   C750.668701,1284.575317 719.837830,1284.642578 689.007141,1284.589722   C669.235352,1284.555786 651.538147,1278.759766 637.283142,1264.635132   C633.193848,1260.583252 630.157593,1255.468628 626.444336,1250.527832  z"></path><path fill="#03BBE3" stroke="none" d=" M792.037598,297.955139   C808.880676,301.920471 818.760376,312.329315 822.460754,328.618713   C825.910217,343.803497 821.333252,356.959198 810.053040,367.042542   C796.746033,378.937653 779.246887,380.728302 762.654968,371.619385   C748.353699,363.768036 740.558105,346.015778 743.838379,329.786682   C747.552490,311.411133 760.237549,299.231842 778.304504,297.254242   C782.673828,296.775940 787.188171,297.622681 792.037598,297.955139  z"></path><path fill="#06BBE3" stroke="none" d=" M758.210571,230.326508   C759.960449,219.099762 765.373169,211.385269 776.274963,208.244629   C790.451477,204.160522 803.631775,211.901337 807.239929,226.416428   C810.727905,240.448105 802.526672,253.558624 788.361755,256.595337   C772.082092,260.085419 758.288696,248.286514 758.210571,230.326508  z"></path><path fill="#146189" stroke="none" d=" M1199.937256,1170.989380   C1202.169434,1165.008301 1204.287598,1159.414307 1206.391357,1153.814941   C1209.561401,1145.377808 1209.638306,1145.331909 1219.397461,1146.956421   C1219.397461,1159.112427 1219.397461,1171.325073 1219.397461,1183.839600   C1217.369019,1183.839600 1215.455322,1183.839600 1213.195923,1183.839600   C1213.195923,1174.773438 1213.195923,1165.671753 1213.195923,1156.570068   C1212.827271,1156.448730 1212.458740,1156.327393 1212.090088,1156.206055   C1211.408936,1157.882935 1210.702637,1159.550049 1210.050903,1161.238281   C1207.476318,1167.906860 1205.011230,1174.620361 1202.271606,1181.220093   C1201.772827,1182.421631 1200.106323,1184.009399 1199.109009,1183.922607   C1197.714722,1183.801392 1195.772217,1182.561646 1195.232056,1181.300415   C1192.552612,1175.042847 1190.275269,1168.613770 1187.812256,1162.262207   C1187.250610,1160.813843 1186.514526,1159.433105 1184.783203,1158.224121   C1184.783203,1166.718872 1184.783203,1175.213745 1184.783203,1183.902588   C1182.229004,1183.902588 1180.316040,1183.902588 1178.176758,1183.902588   C1178.176758,1171.441162 1178.176758,1159.212524 1178.176758,1146.415161   C1181.023071,1146.415161 1183.699829,1146.093018 1186.234497,1146.553467   C1187.467285,1146.777466 1188.914551,1148.263428 1189.440552,1149.522339   C1192.130249,1155.959717 1194.483887,1162.536987 1197.137207,1168.990479   C1197.545776,1169.984253 1198.900024,1170.589355 1199.937256,1170.989380  z"></path><path fill="#09BCE4" stroke="none" d=" M796.064392,148.152039   C799.156494,156.177429 797.176208,163.784821 791.281128,167.475967   C785.658569,170.996475 777.242676,170.206421 772.807739,165.741791   C767.993774,160.895630 767.186157,152.758987 770.933838,146.861664   C776.734741,137.733337 789.296875,138.208069 796.064392,148.152039  z"></path><path fill="#095A84" stroke="none" d=" M1152.696533,1171.973999   C1152.696655,1165.199341 1152.696655,1158.919189 1152.696655,1153.414185   C1149.387329,1149.502686 1141.307007,1156.146973 1141.166504,1146.702637   C1151.273804,1146.702637 1160.830078,1146.702637 1170.434326,1146.702637   C1171.993408,1150.875610 1170.520386,1152.143066 1166.452881,1152.048096   C1158.723877,1151.867798 1159.441895,1151.077881 1159.419067,1159.337769   C1159.396729,1167.455200 1159.414307,1175.572632 1159.414307,1183.905273   C1157.095337,1183.905273 1155.154785,1183.905273 1152.696411,1183.905273   C1152.696411,1180.003906 1152.696411,1176.236206 1152.696533,1171.973999  z"></path><path fill="#4DCFEB" stroke="none" d=" M1049.429810,880.827148   C1050.363159,881.207153 1050.936523,881.651245 1051.887695,882.151367   C1045.293091,885.683838 1038.320923,889.160217 1031.348755,892.636658   C1031.113159,892.210022 1030.877563,891.783447 1030.641846,891.356873   C1036.784546,887.868347 1042.927246,884.379822 1049.429810,880.827148  z"></path><path fill="#63D4ED" stroke="none" d=" M1119.796753,485.668213   C1119.961792,486.419006 1119.922729,486.901428 1119.897461,487.748230   C1113.112793,484.220184 1106.314453,480.327728 1099.265259,476.213135   C1099.014526,475.990997 1098.998657,476.020172 1098.998657,476.020203   C1105.863281,479.146729 1112.728027,482.273254 1119.796753,485.668213  z"></path><path fill="#63D4ED" stroke="none" d=" M448.536041,486.155640   C447.627197,485.799744 447.087067,485.436798 446.213593,484.970062   C450.273193,482.706848 454.666107,480.547424 459.059021,478.387970   C459.370605,479.029724 459.682159,479.671448 459.993744,480.313202   C456.297424,482.258331 452.601074,484.203491 448.536041,486.155640  z"></path><path fill="#63D4ED" stroke="none" d=" M633.504395,577.179810   C633.174744,576.435730 633.213257,575.667664 632.981506,574.787231   C636.169128,573.323181 639.627014,571.971436 643.084900,570.619751   C643.313599,571.164551 643.542297,571.709290 643.770996,572.254089   C640.471497,573.888062 637.171997,575.521973 633.504395,577.179810  z"></path><path fill="#63D4ED" stroke="none" d=" M628.828125,575.762695   C628.489319,576.268860 627.973022,576.609741 627.133423,576.881470   C627.423706,576.407227 628.037231,576.002258 628.828125,575.762695  z"></path><path fill="#63D4ED" stroke="none" d=" M1099.029175,475.981750   C1098.734131,475.825989 1098.424316,475.679504 1098.114624,475.533020   C1098.328247,475.603638 1098.541748,475.674255 1098.876953,475.882507   C1098.998657,476.020172 1099.014526,475.990997 1099.029175,475.981750  z"></path><path fill="#63D4ED" stroke="none" d=" M620.699707,578.898926   C620.683960,579.139221 620.417419,579.360291 619.892639,579.502808   C619.905945,579.242737 620.177490,579.061218 620.699707,578.898926  z"></path><path fill="#63D4ED" stroke="none" d=" M631.473755,578.249573   C631.455444,578.008301 631.663330,577.742432 632.131714,577.568542   C632.231812,577.934937 632.000977,578.123047 631.473755,578.249573  z"></path><path fill="#FBFCFD" stroke="none" d=" M447.000183,1284.531128   C467.833435,1284.526978 488.169067,1284.347534 508.498291,1284.630249   C514.240906,1284.710083 520.191833,1285.410400 525.650757,1287.104004   C537.745544,1290.856323 544.568115,1299.918335 546.797363,1312.046143   C547.897034,1318.028931 547.638428,1324.318237 547.485107,1330.456055   C547.369202,1335.092896 544.643555,1337.763794 539.746948,1337.763672   C493.247498,1337.763306 446.748077,1337.769409 400.248627,1337.754761   C399.784271,1337.754639 399.319946,1337.499512 398.542358,1337.271729   C398.542358,1287.883789 398.542358,1238.478149 398.542358,1188.535034   C400.358948,1188.452637 402.128021,1188.302979 403.897156,1188.302368   C441.396942,1188.290405 478.896759,1188.288208 516.396545,1188.301392   C526.285217,1188.304810 528.664917,1190.453613 528.328918,1200.313477   C528.115295,1206.583862 527.861084,1213.091553 526.066528,1219.020996   C522.044678,1232.309692 512.314087,1240.060669 498.627350,1240.932007   C482.521820,1241.957397 466.323669,1241.573853 450.164917,1241.703491   C438.850952,1241.794312 427.535706,1241.721069 415.941223,1241.721069   C415.693237,1243.096436 415.333038,1244.176270 415.329010,1245.257568   C415.285797,1256.924072 415.385590,1268.591675 415.239502,1280.256470   C415.199249,1283.470703 416.172852,1284.662720 419.502319,1284.593628   C428.498169,1284.407104 437.500458,1284.530518 447.000183,1284.531128  z"></path><path fill="#FEFEFE" stroke="none" d=" M1036.911621,1341.013794   C1015.930786,1340.978882 995.427979,1341.311768 974.947205,1340.785156   C957.860779,1340.345703 943.701599,1333.250854 933.498779,1319.221558   C926.813904,1310.029541 923.908691,1299.458984 923.762695,1288.242798   C923.541504,1271.252075 923.335571,1254.245117 923.819275,1237.265015   C924.676270,1207.181274 946.594788,1185.637939 976.654358,1185.172852   C996.809998,1184.860962 1016.976440,1184.900635 1037.134033,1185.132202   C1067.591309,1185.481934 1088.525391,1203.051636 1091.391968,1233.264282   C1093.286011,1253.226440 1093.223145,1273.671875 1091.275879,1293.631470   C1088.376465,1323.348267 1068.035400,1340.096069 1036.911621,1341.013794  z"></path></svg>