<?xml version="1.0" encoding="UTF-8" standalone="no"?>
<svg
   xmlns:dc="http://purl.org/dc/elements/1.1/"
   xmlns:cc="http://creativecommons.org/ns#"
   xmlns:rdf="http://www.w3.org/1999/02/22-rdf-syntax-ns#"
   xmlns:svg="http://www.w3.org/2000/svg"
   xmlns="http://www.w3.org/2000/svg"
   viewBox="0 0 238.66667 280"
   height="280"
   width="238.66667"
   xml:space="preserve"
   id="svg2"
   version="1.1"><metadata
     id="metadata8"><rdf:RDF><cc:Work
         rdf:about=""><dc:format>image/svg+xml</dc:format><dc:type
           rdf:resource="http://purl.org/dc/dcmitype/StillImage" /></cc:Work></rdf:RDF></metadata><defs
     id="defs6" /><g
     transform="matrix(1.3333333,0,0,-1.3333333,0,280)"
     id="g10"><g
       transform="scale(0.1)"
       id="g12"><path
         id="path14"
         style="fill:#00bae3;fill-opacity:1;fill-rule:evenodd;stroke:none"
         d="m 1406.52,1552.5 c 82.66,-45 147.66,-98.83 195,-161.48 47.35,-62.66 71.49,-130.82 72.5,-204.5 C 1668.36,1048.87 1592.19,934.18 1445.51,842.5 1298.87,751.172 1115,703.871 894.02,700.512 673.012,703.871 489.18,751.172 342.5,842.5 c -146.641,91.68 -222.809,206.37 -228.48,344.02 0.98,73.68 25.16,141.84 72.5,204.5 47.351,62.65 112.351,116.48 195,161.48 C 264.84,1502.19 172.5,1438.52 104.531,1361.52 36.1719,1284.53 1.37109,1199.34 0,1106.02 2.03125,1004.34 42.6992,912.5 122.031,830.512 201.68,748.871 308.672,683.672 443.012,635 577.34,586.68 727.699,561.84 894.02,560.512 1060.35,561.84 1210.66,586.68 1345,635 c 134.34,48.672 241.37,113.871 321.02,195.512 79.33,81.988 120,173.828 121.99,275.508 -1.33,93.32 -36.17,178.51 -104.49,255.5 -68.01,77 -160.36,140.67 -277,190.98" /><path
         id="path16"
         style="fill:#00bae3;fill-opacity:1;fill-rule:evenodd;stroke:none"
         d="m 493.012,863.52 c -128.321,68.98 -195.16,158.32 -200.512,268 4.34,102 63.012,186.84 176.02,254.5 113.32,68 255.152,103.16 425.5,105.5 170.32,-2.65 312.15,-37.85 425.51,-105.5 112.97,-67.66 171.64,-152.5 175.98,-254.5 -5.31,-109.68 -71.99,-199.02 -200,-268 93.36,38 167.19,86.32 221.52,145 54.65,58.67 82.5,123.51 83.48,194.49 -5,116.99 -73.99,214.33 -206.99,291.99 -132.66,77.7 -299.18,118.01 -499.5,121.02 C 694.02,1613.01 527.5,1572.7 394.531,1495 261.52,1417.34 192.5,1320 187.5,1203.01 c 1.371,-70.98 29.18,-135.82 83.52,-194.49 54.332,-58.68 128.32,-107 221.992,-145" /><path
         id="path18"
         style="fill:#00bae3;fill-opacity:1;fill-rule:evenodd;stroke:none"
         d="m 1115,1395 c 98.67,-46.99 150.35,-112.15 155,-195.47 -2.66,-68.67 -39.49,-125.66 -110.47,-171.01 -70.66,-45.668 -159.18,-69.34 -265.51,-71.02 -106.68,1.68 -195.348,25.352 -266.008,71.02 -70.672,45.35 -107.352,102.34 -110,171.01 4.687,83.32 56.168,148.48 154.488,195.47 -82.301,-25 -148.16,-60.47 -197.5,-106.48 -49.34,-46.02 -74.648,-98.17 -75.98,-156.49 3.679,-83.36 52,-152.85 145,-208.51 93.011,-55.36 209.652,-83.989 350,-86.02 140,2.031 256.64,30.66 350,86.02 93.01,55.351 141.18,124.84 144.5,208.51 -1.02,58.32 -26.33,110.47 -76.02,156.49 -49.34,46.01 -115.16,81.48 -197.5,106.48" /><path
         id="path20"
         style="fill:#00bae3;fill-opacity:1;fill-rule:evenodd;stroke:none"
         d="m 894.02,1039.02 c 77,0.98 141.18,17.66 192.5,50 50.98,32 77.5,72.35 79.5,120.98 -2,48.36 -28.52,88.67 -79.5,121.02 -51.32,31.99 -115.5,48.67 -192.5,50 -76.989,-1.33 -141.168,-18.01 -192.5,-50 -51.008,-32.35 -77.5,-72.66 -79.489,-121.02 1.989,-48.63 28.481,-88.98 79.489,-120.98 51.332,-32.34 115.511,-49.02 192.5,-50" /><path
         id="path22"
         style="fill:#ffffff;fill-opacity:1;fill-rule:evenodd;stroke:none"
         d="m 1050.51,1302.03 c -1.33,-44.33 -16.64,-81.17 -45.98,-110.51 -29.331,-29.33 -66.171,-44.49 -110.51,-45.5 -44.02,1.01 -80.86,16.17 -110.5,45.5 -29.34,29.34 -44.5,66.18 -45.508,110.51 1.988,30.98 15.508,70.31 40.508,117.97 25,48.01 50,91.17 75,129.53 25.351,37.97 38.82,58.17 40.5,60.47 2,-2.3 15.511,-22.5 40.511,-60.47 25,-38.36 50.16,-81.52 75.469,-129.53 25,-47.66 38.52,-86.99 40.51,-117.97" /><path
         id="path24"
         style="fill:#00bae3;fill-opacity:1;fill-rule:evenodd;stroke:none"
         d="m 961.52,1777.03 c -4.02,-40.35 -26.168,-62.5 -66.52,-66.52 -40.66,4.02 -62.809,26.17 -66.48,66.52 3.671,40.67 25.82,62.81 66.48,66.49 40.352,-3.68 62.5,-25.82 66.52,-66.49" /><path
         id="path26"
         style="fill:#00bae3;fill-opacity:1;fill-rule:evenodd;stroke:none"
         d="m 936.02,1949.02 c -2.348,-25 -16.02,-38.67 -41.02,-41.01 -25.309,2.34 -39.141,16.01 -41.48,41.01 2.339,25.32 16.171,39.14 41.48,41.49 25,-2.35 38.672,-16.17 41.02,-41.49" /><path
         id="path28"
         style="fill:#00bae3;fill-opacity:1;fill-rule:evenodd;stroke:none"
         d="m 919.02,2076.02 c -1.321,-15 -9.489,-23.17 -24.489,-24.5 -14.691,1.33 -22.691,9.5 -24.019,24.5 1.328,14.64 9.328,22.65 24.019,23.98 15,-1.33 23.168,-9.34 24.489,-23.98" /><path
         id="path30"
         style="fill:#005581;fill-opacity:1;fill-rule:nonzero;stroke:none"
         d="m 578.359,148.551 c 0,-8.551 -1.519,-17.77 -4.531,-27.653 -2.93,-9.808 -7.777,-18.91 -14.527,-27.3472 -6.68,-8.4297 -15.391,-15.461 -26.102,-21.0899 -10.738,-5.6211 -23.859,-8.4414 -39.371,-8.4414 H 228.672 c -5,0 -9.652,0.8594 -13.902,2.6602 -4.301,1.7617 -8.051,4.2187 -11.25,7.3398 -3.129,3.211 -5.59,6.961 -7.348,11.25 -1.793,4.2618 -2.652,8.9102 -2.652,13.9102 V 414.02 c 0,4.769 0.859,9.3 2.652,13.601 1.758,4.258 4.219,8 7.348,11.25 3.199,3.199 6.949,5.699 11.25,7.5 4.25,1.867 8.902,2.809 13.902,2.809 h 233.75 c 8.519,0 17.699,-1.559 27.5,-4.692 9.879,-3.039 19.058,-7.929 27.5,-14.687 8.519,-6.68 15.629,-15.391 21.25,-26.09 5.707,-10.742 8.598,-23.871 8.598,-39.371 v -13.289 c 0,-12.301 -2.11,-25.582 -6.25,-39.84 -4.071,-14.301 -10.711,-27.77 -19.848,-40.473 7.887,-4.797 15.308,-10.617 22.187,-17.5 6.871,-6.789 12.891,-14.648 18.121,-23.59 5.2,-8.867 9.301,-18.988 12.348,-30.308 3.012,-11.25 4.531,-23.719 4.531,-37.352 z m -69.839,13.437 c 0,9.141 -1.489,17.352 -4.379,24.532 -2.813,7.269 -6.84,13.519 -12.032,18.75 -5.121,5.199 -11.371,9.14 -18.75,11.878 -7.308,2.813 -15.55,4.223 -24.687,4.223 H 291.328 V 291.84 H 417.27 c 9.058,0 17.218,1.32 24.531,4.058 7.379,2.813 13.668,6.762 18.898,11.872 5.199,5.199 9.141,11.449 11.879,18.75 2.813,7.269 4.223,15.468 4.223,24.531 v 13.289 c 0,10 -4.813,15 -14.379,15 H 263.359 V 133.871 h 230.469 c 1.25,0 2.731,0.039 4.531,0.149 1.762,0.199 3.36,0.781 4.84,1.718 1.449,0.942 2.699,2.422 3.75,4.532 1.02,2.191 1.571,5.16 1.571,8.91 z m 500.35,15.313 c 0,-13.75 -1.8,-26.172 -5.32,-37.18 -3.43,-10.941 -8.038,-20.633 -13.749,-29.07 -5.742,-8.43 -12.461,-15.6213 -20.153,-21.5627 -7.738,-5.8594 -15.699,-10.6992 -23.91,-14.5274 -8.238,-3.75 -16.636,-6.5195 -25.148,-8.2812 -8.442,-1.8008 -16.41,-2.6602 -23.91,-2.6602 H 627.301 V 133.871 H 896.68 c 13.32,0 23.672,3.899 31.09,11.719 7.5,7.89 11.25,18.469 11.25,31.711 0,6.449 -1.008,12.347 -2.969,17.66 -1.992,5.391 -4.801,10.078 -8.43,14.059 -3.672,3.949 -8.133,6.96 -13.441,9.07 -5.309,2.18 -11.168,3.281 -17.5,3.281 H 736.051 c -11.36,0 -23.551,2.027 -36.563,6.09 -13.039,4.059 -25.148,10.508 -36.398,19.379 -11.18,8.941 -20.469,20.66 -27.969,35.148 -7.422,14.571 -11.101,32.352 -11.101,53.282 0,20.941 3.679,38.601 11.101,52.968 7.5,14.461 16.789,26.172 27.969,35.16 11.25,9.063 23.359,15.622 36.398,19.692 13.012,4.058 25.203,6.09 36.563,6.09 h 237.66 v -69.84 h -237.66 c -13.242,0 -23.59,-4.07 -31.09,-12.192 -7.422,-8.046 -11.09,-18.668 -11.09,-31.878 0,-13.43 3.668,-24.059 11.09,-31.872 7.5,-7.738 17.848,-11.558 31.09,-11.558 h 161.097 c 7.5,-0.238 15.473,-1.25 23.903,-3.129 8.437,-1.871 16.801,-4.801 25.16,-8.75 8.32,-3.981 16.25,-8.981 23.75,-15 7.5,-5.941 14.141,-13.121 20,-21.563 5.82,-8.437 10.389,-18.128 13.749,-29.058 3.44,-10.86 5.16,-23.211 5.16,-37.039 z" /><path
         id="path32"
         style="fill:#005581;fill-opacity:1;fill-rule:nonzero;stroke:none"
         d="m 1471.52,219.801 c 0,-17.922 -2.42,-34.801 -7.18,-50.621 -4.69,-15.86 -11.41,-30.231 -20.16,-43.129 -8.67,-12.93 -19.14,-24.211 -31.41,-33.9026 -12.18,-9.6093 -25.78,-17.1875 -40.78,-22.8086 L 1453.55,4.64844 H 1352.3 l -67.18,54.06246 h -68.75 c -23.05,0 -44.38,3.9883 -64.07,11.8789 -19.68,8 -36.71,19.1407 -51.09,33.4302 -14.3,14.378 -25.55,31.41 -33.75,51.101 -8.12,19.68 -12.19,41.25 -12.19,64.68 v 73.597 c 0,23.204 4.07,44.723 12.19,64.532 8.2,19.769 19.45,36.761 33.75,50.941 14.38,14.25 31.41,25.391 51.09,33.43 19.69,8.129 41.02,12.187 64.07,12.187 h 94.53 c 23.12,0 44.45,-4.058 64.06,-12.187 19.69,-8.039 36.64,-19.18 50.94,-33.43 14.37,-14.18 25.55,-31.172 33.59,-50.941 8.01,-19.809 12.03,-41.328 12.03,-64.532 z m -69.84,73.597 c 0,13.75 -2.19,26.172 -6.56,37.34 -4.38,11.25 -10.59,20.821 -18.6,28.75 -7.93,8.012 -17.5,14.223 -28.75,18.602 -11.17,4.371 -23.43,6.558 -36.87,6.558 h -94.53 c -13.56,0 -25.94,-2.187 -37.19,-6.558 -11.17,-4.379 -20.78,-10.59 -28.91,-18.602 -8.04,-7.929 -14.22,-17.5 -18.59,-28.75 -4.38,-11.168 -6.56,-23.59 -6.56,-37.34 v -73.597 c 0,-13.75 2.18,-26.25 6.56,-37.5 4.37,-11.172 10.55,-20.742 18.59,-28.75 8.13,-7.93 17.74,-14.063 28.91,-18.43 11.25,-4.383 23.63,-6.57 37.19,-6.57 h 94.06 c 13.63,0 26.02,2.187 37.19,6.57 11.13,4.367 20.7,10.5 28.75,18.43 8.12,8.008 14.37,17.578 18.75,28.75 4.37,11.25 6.56,23.75 6.56,37.5 z" /><path
         id="path34"
         style="fill:#005581;fill-opacity:1;fill-rule:nonzero;stroke:none"
         d="m 1499.61,386.172 v 52.808 h -18.75 v 9.071 h 48.91 v -9.071 h -18.91 v -52.808 z m 52.34,0 h -10.78 v 61.879 h 16.72 l 17.5,-45.321 17.19,45.321 h 16.72 v -61.879 h -10.78 v 50.777 l -19.22,-50.777 h -8.13 l -19.22,50.156 z" /></g></g></svg>